<?xml version="1.0" encoding="UTF-8"?>
<!DOCTYPE svg PUBLIC "-//W3C//DTD SVG 1.1//EN" "http://www.w3.org/Graphics/SVG/1.1/DTD/svg11.dtd">
<svg xmlns="http://www.w3.org/2000/svg" version="1.1" width="1500px" height="1500px" style="shape-rendering:geometricPrecision; text-rendering:geometricPrecision; image-rendering:optimizeQuality; fill-rule:evenodd; clip-rule:evenodd" xmlns:xlink="http://www.w3.org/1999/xlink">
<g><path style="opacity:0.978" fill="#000000" d="M 560.5,351.5 C 682.5,351.333 804.5,351.5 926.5,352C 946.372,356.204 957.538,368.371 960,388.5C 960.333,492.167 960.667,595.833 961,699.5C 987.253,654.663 1013.25,609.663 1039,564.5C 1049.72,552.944 1062.56,549.777 1077.5,555C 1093.33,563.747 1109,572.747 1124.5,582C 1136.65,594.08 1139.15,607.913 1132,623.5C 1075,722.167 1018,820.833 961,919.5C 960.667,967.833 960.333,1016.17 960,1064.5C 958.404,1083.87 948.237,1096.04 929.5,1101C 924.511,1101.5 919.511,1101.67 914.5,1101.5C 915.931,1125.88 904.931,1141.04 881.5,1147C 719.833,1147.67 558.167,1147.67 396.5,1147C 382.378,1144.88 372.211,1137.38 366,1124.5C 364.263,1120.34 363.263,1116.01 363,1111.5C 362.006,883.138 362.339,654.805 364,426.5C 368.276,411.224 378.109,401.724 393.5,398C 430.5,397.667 467.5,397.333 504.5,397C 516.833,384.667 529.167,372.333 541.5,360C 547.268,355.697 553.601,352.864 560.5,351.5 Z M 568.5,377.5 C 686.834,377.333 805.167,377.5 923.5,378C 929.447,379.613 932.947,383.447 934,389.5C 934.667,508.5 934.667,627.5 934,746.5C 906.626,794.082 879.126,841.582 851.5,889C 799.5,889.333 747.5,889.667 695.5,890C 688.567,893.372 686.067,898.872 688,906.5C 689.717,911.551 693.217,914.385 698.5,915C 745.165,915.5 791.832,915.667 838.5,915.5C 836.778,935.829 835.111,956.162 833.5,976.5C 788.499,976.333 743.499,976.5 698.5,977C 689.538,979.408 686.038,985.241 688,994.5C 689.167,998.333 691.667,1000.83 695.5,1002C 742.167,1002.33 788.833,1002.67 835.5,1003C 842.182,1013.12 851.515,1016.79 863.5,1014C 867.4,1012.43 871.066,1010.43 874.5,1008C 894.597,994.201 914.431,980.035 934,965.5C 934.667,998.167 934.667,1030.83 934,1063.5C 933.067,1068.76 930.234,1072.6 925.5,1075C 764.833,1075.67 604.167,1075.67 443.5,1075C 439.333,1073.5 436.5,1070.67 435,1066.5C 434.5,881.5 434.333,696.5 434.5,511.5C 469.502,511.667 504.502,511.5 539.5,511C 555.103,507.063 564.603,497.23 568,481.5C 568.5,446.835 568.667,412.168 568.5,377.5 Z M 541.5,396.5 C 542.167,409.996 542.5,423.663 542.5,437.5C 542.651,451.923 542.151,466.257 541,480.5C 539.457,482.378 537.624,483.878 535.5,485C 508.167,485.667 480.833,485.667 453.5,485C 483.035,455.632 512.368,426.132 541.5,396.5 Z M 1030.5,630.5 C 1042.57,636.697 1054.57,643.197 1066.5,650C 1071.38,652.932 1076.04,656.099 1080.5,659.5C 1026.87,752.962 973.033,846.296 919,939.5C 902.417,929.793 885.917,919.959 869.5,910C 923.822,817.187 977.489,724.02 1030.5,630.5 Z"/></g>
<g><path style="opacity:0.968" fill="#000000" d="M 639.5,450.5 C 717.834,450.333 796.167,450.5 874.5,451C 883.396,454.918 885.896,461.418 882,470.5C 880.039,473.135 877.539,474.969 874.5,476C 795.833,476.667 717.167,476.667 638.5,476C 629.393,470.738 627.559,463.571 633,454.5C 635.095,452.875 637.261,451.542 639.5,450.5 Z"/></g>
<g><path style="opacity:0.96" fill="#000000" d="M 493.5,538.5 C 620.834,538.333 748.167,538.5 875.5,539C 881.053,541.263 883.72,545.43 883.5,551.5C 883.354,558.152 880.02,562.319 873.5,564C 747.167,564.667 620.833,564.667 494.5,564C 484.907,559.894 482.407,553.061 487,543.5C 488.805,541.174 490.972,539.508 493.5,538.5 Z"/></g>
<g><path style="opacity:0.997" fill="#000000" d="M 492.5,626.5 C 620.5,626.333 748.5,626.5 876.5,627C 883.926,632.42 885.426,639.254 881,647.5C 879.59,648.787 878.09,649.954 876.5,651C 748.5,651.667 620.5,651.667 492.5,651C 481.899,642.838 481.899,634.671 492.5,626.5 Z"/></g>
<g><path style="opacity:0.992" fill="#000000" d="M 494.5,713.5 C 540.835,713.333 587.168,713.5 633.5,714C 637.843,715.01 641.01,717.51 643,721.5C 643.667,812.5 643.667,903.5 643,994.5C 641.833,998.333 639.333,1000.83 635.5,1002C 587.833,1002.67 540.167,1002.67 492.5,1002C 489.667,1000.5 487.5,998.333 486,995.5C 484.341,904.89 484.008,814.223 485,723.5C 486.35,718.319 489.517,714.986 494.5,713.5 Z"/></g>
<g><path style="opacity:0.967" fill="#000000" d="M 697.5,713.5 C 756.168,713.333 814.834,713.5 873.5,714C 883.835,718.231 886.335,725.398 881,735.5C 879.167,736.667 877.333,737.833 875.5,739C 815.5,739.667 755.5,739.667 695.5,739C 687.543,734.571 685.376,728.071 689,719.5C 691.322,716.605 694.155,714.605 697.5,713.5 Z"/></g>
<g><path style="opacity:0.967" fill="#000000" d="M 696.5,801.5 C 755.834,801.333 815.168,801.5 874.5,802C 883.399,805.87 885.899,812.37 882,821.5C 880.062,824.106 877.562,825.939 874.5,827C 815.167,827.667 755.833,827.667 696.5,827C 687.918,822.93 685.418,816.43 689,807.5C 691.134,804.847 693.634,802.847 696.5,801.5 Z"/></g>
</svg>
