<?xml version="1.0" encoding="UTF-8"?>
<!DOCTYPE svg PUBLIC "-//W3C//DTD SVG 1.1//EN" "http://www.w3.org/Graphics/SVG/1.1/DTD/svg11.dtd">
<svg xmlns="http://www.w3.org/2000/svg" version="1.1" width="1500px" height="1500px" style="shape-rendering:geometricPrecision; text-rendering:geometricPrecision; image-rendering:optimizeQuality; fill-rule:evenodd; clip-rule:evenodd" xmlns:xlink="http://www.w3.org/1999/xlink">
<g><path style="opacity:0.967" fill="#000000" d="M 722.5,317.5 C 856.156,311.941 963.322,361.941 1044,467.5C 1109.03,562.346 1127.37,665.68 1099,777.5C 1063.3,895.196 988.138,976.363 873.5,1021C 852.288,1028.39 830.621,1034.05 808.5,1038C 793.126,1065.25 777.626,1092.41 762,1119.5C 753.62,1128.82 745.287,1128.82 737,1119.5C 721.374,1092.41 705.874,1065.25 690.5,1038C 567.964,1014.42 478.464,947.251 422,836.5C 375.859,734.604 374.859,632.27 419,529.5C 473.248,417.434 561.414,348.6 683.5,323C 696.591,320.754 709.591,318.92 722.5,317.5 Z M 739.5,345.5 C 856.937,345.803 950.77,392.469 1021,485.5C 1086.03,581.374 1100.03,684.374 1063,794.5C 1027.99,885.848 965.485,950.681 875.5,989C 848.263,999.476 820.263,1007.14 791.5,1012C 790,1013.5 788.5,1015 787,1016.5C 774.7,1038.3 762.2,1059.96 749.5,1081.5C 736.495,1060.16 723.995,1038.49 712,1016.5C 710.5,1015 709,1013.5 707.5,1012C 599.088,994.815 516.588,939.648 460,846.5C 408.891,753.081 401.891,656.415 439,556.5C 477.131,466.369 541.631,403.202 632.5,367C 667.188,354.229 702.855,347.062 739.5,345.5 Z M 734.5,429.5 C 819.984,427.34 890.151,458.673 945,523.5C 999.248,595.646 1012.91,674.98 986,761.5C 953.514,846.988 893.014,901.154 804.5,924C 707.323,942.163 625.489,914.996 559,842.5C 499.661,768.118 484.661,685.451 514,594.5C 541.77,523.063 591.27,473.23 662.5,445C 685.963,436.676 709.963,431.509 734.5,429.5 Z M 733.5,541.5 C 734.792,550.207 737.625,558.541 742,566.5C 747.301,572.802 752.968,578.802 759,584.5C 765.59,595.541 763.09,603.708 751.5,609C 741.506,609.5 731.506,609.666 721.5,609.5C 721.5,619.167 721.5,628.833 721.5,638.5C 734.228,638.92 746.894,638.42 759.5,637C 785.166,627.177 795.333,608.677 790,581.5C 788.194,576.554 785.861,571.888 783,567.5C 777.667,562.167 772.333,556.833 767,551.5C 764.86,548.278 764.027,544.944 764.5,541.5C 827.941,552.108 868.108,588.441 885,650.5C 895.079,713.986 873.579,763.486 820.5,799C 772.33,825.276 724.33,824.943 676.5,798C 626.093,763.334 604.926,715.501 613,654.5C 625.62,599.545 658.786,563.378 712.5,546C 719.621,544.411 726.621,542.911 733.5,541.5 Z M 577.5,652.5 C 579.5,652.5 581.5,652.5 583.5,652.5C 582.602,661.645 581.936,670.811 581.5,680C 581.581,689.15 582.581,698.15 584.5,707C 567.134,706.3 557.134,697.3 554.5,680C 555.907,665.438 563.574,656.272 577.5,652.5 Z M 914.5,653.5 C 932.41,652.896 942.076,661.73 943.5,680C 941.83,696.004 932.997,705.171 917,707.5C 916.167,707.167 915.333,706.833 914.5,706.5C 918.481,688.706 918.481,671.039 914.5,653.5 Z"/></g>
<g><path style="opacity:0.967" fill="#000000" d="M 734.5,400.5 C 835.583,398.464 916.416,437.464 977,517.5C 1032.47,600.627 1043.14,689.293 1009,783.5C 965.783,882.559 890.616,940.393 783.5,957C 674.991,966.644 587.825,928.477 522,842.5C 470.777,766.957 457.61,685.124 482.5,597C 511.376,511.456 567.709,451.789 651.5,418C 678.509,408.366 706.176,402.533 734.5,400.5 Z M 734.5,429.5 C 709.963,431.509 685.963,436.676 662.5,445C 591.27,473.23 541.77,523.063 514,594.5C 484.661,685.451 499.661,768.118 559,842.5C 625.489,914.996 707.323,942.163 804.5,924C 893.014,901.154 953.514,846.988 986,761.5C 1012.91,674.98 999.248,595.646 945,523.5C 890.151,458.673 819.984,427.34 734.5,429.5 Z M 733.5,541.5 C 726.621,542.911 719.621,544.411 712.5,546C 658.786,563.378 625.62,599.545 613,654.5C 604.926,715.501 626.093,763.334 676.5,798C 724.33,824.943 772.33,825.276 820.5,799C 873.579,763.486 895.079,713.986 885,650.5C 868.108,588.441 827.941,552.108 764.5,541.5C 764.027,544.944 764.86,548.278 767,551.5C 772.333,556.833 777.667,562.167 783,567.5C 785.861,571.888 788.194,576.554 790,581.5C 795.333,608.677 785.166,627.177 759.5,637C 746.894,638.42 734.228,638.92 721.5,638.5C 721.5,628.833 721.5,619.167 721.5,609.5C 731.506,609.666 741.506,609.5 751.5,609C 763.09,603.708 765.59,595.541 759,584.5C 752.968,578.802 747.301,572.802 742,566.5C 737.625,558.541 734.792,550.207 733.5,541.5 Z M 577.5,652.5 C 563.574,656.272 555.907,665.438 554.5,680C 557.134,697.3 567.134,706.3 584.5,707C 582.581,698.15 581.581,689.15 581.5,680C 581.936,670.811 582.602,661.645 583.5,652.5C 581.5,652.5 579.5,652.5 577.5,652.5 Z M 914.5,653.5 C 918.481,671.039 918.481,688.706 914.5,706.5C 915.333,706.833 916.167,707.167 917,707.5C 932.997,705.171 941.83,696.004 943.5,680C 942.076,661.73 932.41,652.896 914.5,653.5 Z"/></g>
<g><path style="opacity:0.969" fill="#000000" d="M 731.5,512.5 C 802.014,508.172 856.181,535.506 894,594.5C 898.901,603.803 903.401,613.303 907.5,623C 932.076,621.282 951.243,630.449 965,650.5C 979.213,679.794 974.047,704.961 949.5,726C 936.663,733.838 922.663,737.505 907.5,737C 875.251,812.479 817.918,849.146 735.5,847C 675.561,840.135 630.727,810.635 601,758.5C 597.687,751.377 594.521,744.21 591.5,737C 552.438,737.502 530.438,718.502 525.5,680C 530.452,641.388 552.452,622.388 591.5,623C 617.124,559.546 663.791,522.713 731.5,512.5 Z M 733.5,541.5 C 726.621,542.911 719.621,544.411 712.5,546C 658.786,563.378 625.62,599.545 613,654.5C 604.926,715.501 626.093,763.334 676.5,798C 724.33,824.943 772.33,825.276 820.5,799C 873.579,763.486 895.079,713.986 885,650.5C 868.108,588.441 827.941,552.108 764.5,541.5C 764.027,544.944 764.86,548.278 767,551.5C 772.333,556.833 777.667,562.167 783,567.5C 785.861,571.888 788.194,576.554 790,581.5C 795.333,608.677 785.166,627.177 759.5,637C 746.894,638.42 734.228,638.92 721.5,638.5C 721.5,628.833 721.5,619.167 721.5,609.5C 731.506,609.666 741.506,609.5 751.5,609C 763.09,603.708 765.59,595.541 759,584.5C 752.968,578.802 747.301,572.802 742,566.5C 737.625,558.541 734.792,550.207 733.5,541.5 Z M 577.5,652.5 C 563.574,656.272 555.907,665.438 554.5,680C 557.134,697.3 567.134,706.3 584.5,707C 582.581,698.15 581.581,689.15 581.5,680C 581.936,670.811 582.602,661.645 583.5,652.5C 581.5,652.5 579.5,652.5 577.5,652.5 Z M 914.5,653.5 C 918.481,671.039 918.481,688.706 914.5,706.5C 915.333,706.833 916.167,707.167 917,707.5C 932.997,705.171 941.83,696.004 943.5,680C 942.076,661.73 932.41,652.896 914.5,653.5 Z"/></g>
<g><path style="opacity:0.949" fill="#000000" d="M 665.5,651.5 C 675.167,651.5 684.833,651.5 694.5,651.5C 694.5,665.833 694.5,680.167 694.5,694.5C 684.833,694.5 675.167,694.5 665.5,694.5C 665.5,680.167 665.5,665.833 665.5,651.5 Z"/></g>
<g><path style="opacity:0.957" fill="#000000" d="M 804.5,651.5 C 814.167,651.5 823.833,651.5 833.5,651.5C 833.5,665.833 833.5,680.167 833.5,694.5C 823.833,694.5 814.167,694.5 804.5,694.5C 804.5,680.167 804.5,665.833 804.5,651.5 Z"/></g>
<g><path style="opacity:0.966" fill="#000000" d="M 707.5,749.5 C 717.167,749.5 726.833,749.5 736.5,749.5C 738.833,762 745.833,765.5 757.5,760C 760.653,757.195 762.319,753.695 762.5,749.5C 772.167,749.5 781.833,749.5 791.5,749.5C 789.818,775.849 775.818,789.849 749.5,791.5C 723.163,789.83 709.163,775.83 707.5,749.5 Z"/></g>
<g><path style="opacity:0.996" fill="#000000" d="M 595.5,1153.5 C 698.167,1153.5 800.833,1153.5 903.5,1153.5C 903.5,1162.83 903.5,1172.17 903.5,1181.5C 800.833,1181.5 698.167,1181.5 595.5,1181.5C 595.5,1172.17 595.5,1162.83 595.5,1153.5 Z"/></g>
</svg>
