<?xml version="1.0" encoding="UTF-8"?>
<!DOCTYPE svg PUBLIC "-//W3C//DTD SVG 1.1//EN" "http://www.w3.org/Graphics/SVG/1.1/DTD/svg11.dtd">
<svg xmlns="http://www.w3.org/2000/svg" version="1.1" width="1501px" height="1500px" style="shape-rendering:geometricPrecision; text-rendering:geometricPrecision; image-rendering:optimizeQuality; fill-rule:evenodd; clip-rule:evenodd" xmlns:xlink="http://www.w3.org/1999/xlink">
<g><path style="opacity:0.985" fill="#000000" d="M 748.5,321.5 C 796.335,318.895 831.502,338.562 854,380.5C 856.536,385.607 858.369,390.94 859.5,396.5C 881.836,396.333 904.169,396.5 926.5,397C 936.14,399.305 942.64,405.138 946,414.5C 947.317,420.757 947.817,427.091 947.5,433.5C 966.836,433.333 986.17,433.5 1005.5,434C 1053.14,441.641 1082.97,468.808 1095,515.5C 1096,521.461 1096.66,527.461 1097,533.5C 1097.67,572.5 1097.67,611.5 1097,650.5C 1093.85,670.01 1082.35,678.843 1062.5,677C 1048.8,673.446 1041.3,664.613 1040,650.5C 1039.67,609.5 1039.33,568.5 1039,527.5C 1034.68,509.183 1023.52,497.35 1005.5,492C 986.213,490.564 966.88,490.064 947.5,490.5C 949.462,523.667 935.462,547.167 905.5,561C 899.332,563.125 892.999,564.459 886.5,565C 802.167,565.667 717.833,565.667 633.5,565C 601.225,560.39 581.391,542.224 574,510.5C 573.5,503.842 573.334,497.175 573.5,490.5C 555.83,490.333 538.164,490.5 520.5,491C 498.217,495.616 485.05,509.116 481,531.5C 480.333,727.833 480.333,924.167 481,1120.5C 484.851,1142.02 497.351,1155.52 518.5,1161C 624.167,1161.33 729.833,1161.67 835.5,1162C 854.557,1166.95 862.39,1179.11 859,1198.5C 855.833,1208.33 849.333,1214.83 839.5,1218C 730.5,1218.67 621.5,1218.67 512.5,1218C 474.082,1211.07 446.915,1189.9 431,1154.5C 427.092,1144.87 424.758,1134.87 424,1124.5C 423.009,922.811 423.342,721.145 425,519.5C 432.647,480.188 455.147,453.355 492.5,439C 497.754,437.353 503.087,436.02 508.5,435C 530.131,433.581 551.798,433.081 573.5,433.5C 570.502,417.334 576.169,405.5 590.5,398C 614.101,396.53 637.768,396.03 661.5,396.5C 670.361,364.646 690.028,342.146 720.5,329C 729.716,325.532 739.049,323.032 748.5,321.5 Z M 753.5,378.5 C 777.486,377.241 794.319,387.574 804,409.5C 805.717,417.776 807.05,426.109 808,434.5C 812.711,445.207 820.878,451.374 832.5,453C 851.83,453.5 871.164,453.667 890.5,453.5C 890.667,469.837 890.5,486.17 890,502.5C 889.052,504.57 887.552,506.07 885.5,507C 843.725,508.159 801.891,508.659 760,508.5C 718.109,508.659 676.275,508.159 634.5,507C 632.951,505.786 631.785,504.286 631,502.5C 630.5,486.17 630.333,469.837 630.5,453.5C 649.836,453.667 669.17,453.5 688.5,453C 700.5,451.334 708.667,444.834 713,433.5C 712.491,404.414 725.991,386.08 753.5,378.5 Z"/></g>
<g><path style="opacity:0.988" fill="#000000" d="M 557.5,620.5 C 605.834,620.333 654.168,620.5 702.5,621C 713.54,624.705 720.373,632.205 723,643.5C 723.667,690.833 723.667,738.167 723,785.5C 720.557,796.908 713.724,804.074 702.5,807C 653.833,807.667 605.167,807.667 556.5,807C 545.46,803.295 538.627,795.795 536,784.5C 535.333,737.833 535.333,691.167 536,644.5C 538.496,632.177 545.663,624.177 557.5,620.5 Z M 592.5,677.5 C 617.167,677.5 641.833,677.5 666.5,677.5C 666.5,701.833 666.5,726.167 666.5,750.5C 641.833,750.5 617.167,750.5 592.5,750.5C 592.5,726.167 592.5,701.833 592.5,677.5 Z"/></g>
<g><path style="opacity:0.982" fill="#000000" d="M 813.5,638.5 C 867.199,638.026 920.866,638.526 974.5,640C 989.304,645.764 995.804,656.597 994,672.5C 991.373,683.795 984.54,691.295 973.5,695C 918.5,695.667 863.5,695.667 808.5,695C 791.901,688.306 785.401,676.139 789,658.5C 793.511,647.138 801.678,640.472 813.5,638.5 Z"/></g>
<g><path style="opacity:0.984" fill="#000000" d="M 1058.5,732.5 C 1151.95,728.478 1225.78,764.145 1280,839.5C 1322.35,905.956 1332.02,976.956 1309,1052.5C 1280.42,1130.74 1226.59,1182.91 1147.5,1209C 1065.74,1230.85 991.407,1216.18 924.5,1165C 856.07,1105.75 826.903,1030.91 837,940.5C 850.371,861.538 891.537,802.038 960.5,762C 991.327,745.632 1023.99,735.799 1058.5,732.5 Z M 1062.5,789.5 C 1141.91,787.11 1201.75,819.777 1242,887.5C 1272.27,946.997 1271.94,1006.33 1241,1065.5C 1208.43,1121.23 1159.93,1153.06 1095.5,1161C 1017.98,1164.99 958.48,1134.49 917,1069.5C 883.395,1007.67 883.062,945.667 916,883.5C 949.54,828.482 998.373,797.149 1062.5,789.5 Z"/></g>
<g><path style="opacity:0.981" fill="#000000" d="M 1164.5,872.5 C 1189.81,871.313 1201.31,883.313 1199,908.5C 1197.94,911.618 1196.61,914.618 1195,917.5C 1150.96,967.204 1107.29,1017.2 1064,1067.5C 1055.88,1076.76 1045.72,1080.26 1033.5,1078C 1029.46,1077.1 1025.8,1075.43 1022.5,1073C 994.972,1045.81 967.805,1018.31 941,990.5C 933.79,974.688 936.956,961.521 950.5,951C 961.326,946.093 971.992,946.426 982.5,952C 1001.33,970.833 1020.17,989.667 1039,1008.5C 1077.17,965 1115.33,921.5 1153.5,878C 1157.02,875.674 1160.68,873.84 1164.5,872.5 Z"/></g>
<g><path style="opacity:0.988" fill="#000000" d="M 556.5,919.5 C 605.168,919.333 653.834,919.5 702.5,920C 713.271,923.351 720.105,930.518 723,941.5C 723.667,988.833 723.667,1036.17 723,1083.5C 720.373,1094.79 713.54,1102.29 702.5,1106C 653.833,1106.67 605.167,1106.67 556.5,1106C 545.035,1102.2 538.202,1094.37 536,1082.5C 535.333,1035.83 535.333,989.167 536,942.5C 538.817,931.187 545.65,923.52 556.5,919.5 Z M 592.5,976.5 C 617.167,976.5 641.833,976.5 666.5,976.5C 666.5,1000.83 666.5,1025.17 666.5,1049.5C 641.833,1049.5 617.167,1049.5 592.5,1049.5C 592.5,1025.17 592.5,1000.83 592.5,976.5 Z"/></g>
</svg>
