<?xml version="1.0" encoding="UTF-8"?>
<!DOCTYPE svg PUBLIC "-//W3C//DTD SVG 1.1//EN" "http://www.w3.org/Graphics/SVG/1.1/DTD/svg11.dtd">
<svg xmlns="http://www.w3.org/2000/svg" version="1.1" width="1501px" height="1500px" style="shape-rendering:geometricPrecision; text-rendering:geometricPrecision; image-rendering:optimizeQuality; fill-rule:evenodd; clip-rule:evenodd" xmlns:xlink="http://www.w3.org/1999/xlink">
<g><path style="opacity:0.996" fill="#000000" d="M 517.5,298.5 C 579.708,296.96 636.042,314.127 686.5,350C 707.937,365.803 729.103,381.97 750,398.5C 778.702,375.899 808.202,354.399 838.5,334C 918.201,291.332 999.868,287.332 1083.5,322C 1195.95,375.81 1251.62,465.477 1250.5,591C 1249.22,672.853 1223.39,745.686 1173,809.5C 1168.63,814.865 1163.96,819.865 1159,824.5C 1113.89,780.015 1061.05,767.515 1000.5,787C 993.251,790.46 985.918,793.627 978.5,796.5C 964.781,743.115 931.114,709.781 877.5,696.5C 883.153,684.187 887.986,671.52 892,658.5C 904.608,595.309 885.774,543.809 835.5,504C 777.961,467.041 720.627,467.375 663.5,505C 617.653,541.553 598.487,589.053 606,647.5C 609.166,664.328 614.999,680.162 623.5,695C 578.005,706.986 545.839,734.486 527,777.5C 524.653,783.705 522.82,790.038 521.5,796.5C 468.584,769.403 416.917,771.57 366.5,803C 357.751,809.057 349.751,816.057 342.5,824C 341.833,824.667 341.167,824.667 340.5,824C 280.623,757.075 250.623,678.409 250.5,588C 248.815,476.328 295.482,391.995 390.5,335C 430.23,313.322 472.564,301.155 517.5,298.5 Z"/></g>
<g><path style="opacity:0.992" fill="#000000" d="M 743.5,510.5 C 795.466,510.219 832.3,533.553 854,580.5C 870.648,630.408 859.815,673.241 821.5,709C 786.678,735.246 748.678,740.913 707.5,726C 656.389,701.16 633.889,660.326 640,603.5C 652.942,548.386 687.442,517.386 743.5,510.5 Z"/></g>
<g><path style="opacity:0.986" fill="#000000" d="M 643.5,724.5 C 644.552,724.351 645.552,724.517 646.5,725C 691.529,767.475 743.529,778.809 802.5,759C 822.466,751.11 839.966,739.61 855,724.5C 865.5,728 876,731.5 886.5,735C 924.88,751.599 945.047,780.765 947,822.5C 924.242,845.89 910.742,873.89 906.5,906.5C 899.825,906.666 893.158,906.5 886.5,906C 859.978,847.468 814.478,816.634 750,813.5C 695.264,815.526 653.264,839.526 624,885.5C 620.56,892.045 617.394,898.712 614.5,905.5C 607.532,906.497 600.532,906.83 593.5,906.5C 589.352,873.873 575.852,845.873 553,822.5C 555.037,781.806 574.537,752.973 611.5,736C 622.303,732.235 632.97,728.402 643.5,724.5 Z"/></g>
<g><path style="opacity:0.992" fill="#000000" d="M 436.5,812.5 C 492.893,810.259 532.06,834.926 554,886.5C 568.584,935.338 557.084,976.838 519.5,1011C 482.291,1038.43 442.291,1043.09 399.5,1025C 349.305,996.434 329.472,953.601 340,896.5C 354.699,848.293 386.866,820.293 436.5,812.5 Z"/></g>
<g><path style="opacity:0.992" fill="#000000" d="M 1039.5,812.5 C 1086.17,809.917 1122.33,827.917 1148,866.5C 1167.48,902.659 1168.48,939.325 1151,976.5C 1125.61,1019.61 1087.78,1039.11 1037.5,1035C 994.066,1027.89 963.899,1004.06 947,963.5C 931.377,913.141 943.21,870.641 982.5,836C 999.487,823.169 1018.49,815.336 1039.5,812.5 Z"/></g>
<g><path style="opacity:0.992" fill="#000000" d="M 744.5,847.5 C 794.755,847.96 830.922,870.627 853,915.5C 871.916,969.021 859.749,1013.85 816.5,1050C 775.008,1077.08 732.674,1078.41 689.5,1054C 644.529,1021.09 629.362,977.594 644,923.5C 661.898,877.474 695.398,852.141 744.5,847.5 Z"/></g>
<g><path style="opacity:0.988" fill="#000000" d="M 340.5,1026.5 C 342.199,1026.34 343.866,1026.51 345.5,1027C 382.607,1062.48 426.607,1075.81 477.5,1067C 505.746,1061.05 530.079,1048.05 550.5,1028C 551.729,1027.22 553.062,1026.72 554.5,1026.5C 568.602,1030.55 582.268,1035.72 595.5,1042C 539.659,1071.65 513.659,1118.32 517.5,1182C 517.507,1190.74 517.84,1199.41 518.5,1208C 441.5,1208.67 364.5,1208.67 287.5,1208C 269.199,1205.37 257.366,1195.2 252,1177.5C 250.414,1158.87 250.081,1140.21 251,1121.5C 254.445,1083.75 272.945,1056.25 306.5,1039C 318.03,1035.05 329.363,1030.89 340.5,1026.5 Z"/></g>
<g><path style="opacity:0.988" fill="#000000" d="M 943.5,1026.5 C 945.199,1026.34 946.866,1026.51 948.5,1027C 986.383,1063.73 1031.38,1077.06 1083.5,1067C 1111.38,1060.4 1135.38,1047.06 1155.5,1027C 1220.93,1039.21 1252.27,1078.54 1249.5,1145C 1249.61,1156.21 1249.11,1167.38 1248,1178.5C 1242.25,1195.57 1230.42,1205.41 1212.5,1208C 1135.83,1208.5 1059.17,1208.67 982.5,1208.5C 982.667,1189.5 982.5,1170.5 982,1151.5C 975.702,1101.04 949.869,1064.54 904.5,1042C 917.364,1036.23 930.364,1031.06 943.5,1026.5 Z"/></g>
<g><path style="opacity:0.993" fill="#000000" d="M 643.5,1061.5 C 644.552,1061.35 645.552,1061.52 646.5,1062C 680.76,1095.31 721.76,1109.31 769.5,1104C 802.909,1099.13 831.575,1084.96 855.5,1061.5C 869.024,1065.84 882.358,1070.67 895.5,1076C 924.381,1092.23 941.548,1116.73 947,1149.5C 947.667,1170.17 947.667,1190.83 947,1211.5C 942.399,1228.43 931.565,1238.93 914.5,1243C 804.833,1243.67 695.167,1243.67 585.5,1243C 567.576,1238.74 556.743,1227.58 553,1209.5C 552.333,1190.17 552.333,1170.83 553,1151.5C 558.315,1114.68 577.815,1088.51 611.5,1073C 622.303,1069.23 632.97,1065.4 643.5,1061.5 Z"/></g>
</svg>
