<?xml version="1.0" encoding="UTF-8"?>
<!DOCTYPE svg PUBLIC "-//W3C//DTD SVG 1.1//EN" "http://www.w3.org/Graphics/SVG/1.1/DTD/svg11.dtd">
<svg xmlns="http://www.w3.org/2000/svg" version="1.1" width="1501px" height="1500px" style="shape-rendering:geometricPrecision; text-rendering:geometricPrecision; image-rendering:optimizeQuality; fill-rule:evenodd; clip-rule:evenodd" xmlns:xlink="http://www.w3.org/1999/xlink">
<g><path style="opacity:0.97" fill="#000000" d="M 733.5,291.5 C 853.271,288.585 958.937,325.085 1050.5,401C 1068.4,416.9 1084.9,434.067 1100,452.5C 1104.82,464.076 1101.66,472.576 1090.5,478C 1086.07,478.791 1081.74,478.457 1077.5,477C 1001.56,388.023 904.894,338.023 787.5,327C 665.675,318.055 558.675,353.055 466.5,432C 451.77,446.061 437.77,460.727 424.5,476C 413.259,481.142 404.759,478.309 399,467.5C 398.333,463.5 398.333,459.5 399,455.5C 433.16,412.022 474.327,376.855 522.5,350C 588.373,314.117 658.706,294.617 733.5,291.5 Z"/></g>
<g><path style="opacity:0.972" fill="#000000" d="M 725.5,389.5 C 813.478,384.903 893.144,408.069 964.5,459C 972.019,466.262 973.186,474.429 968,483.5C 962.681,489.167 956.181,491.001 948.5,489C 851.659,420.546 746.992,405.546 634.5,444C 605.712,455.055 579.046,469.722 554.5,488C 536.67,492.518 528.503,485.685 530,467.5C 530.914,465.336 532.081,463.336 533.5,461.5C 590.463,419.03 654.463,395.03 725.5,389.5 Z"/></g>
<g><path style="opacity:0.975" fill="#000000" d="M 454.5,519.5 C 496.329,516.008 529.496,531.008 554,564.5C 579.002,609.78 575.335,652.447 543,692.5C 539.072,695.883 535.239,699.383 531.5,703C 571.932,717.766 603.766,743.266 627,779.5C 643.475,768.846 660.975,760.179 679.5,753.5C 633.545,715.108 620.379,667.441 640,610.5C 659.123,567.41 692.29,543.576 739.5,539C 782.955,535.987 818.455,551.154 846,584.5C 874.788,628.348 876.788,673.348 852,719.5C 843.586,732.582 833.086,743.749 820.5,753C 838.886,760.11 856.386,768.943 873,779.5C 896.693,743.737 928.526,718.07 968.5,702.5C 935.216,673.145 923.716,636.812 934,593.5C 947.197,550.639 976.031,526.139 1020.5,520C 1059.29,516.031 1091.12,528.864 1116,558.5C 1140.9,596.307 1142.9,635.307 1122,675.5C 1115.57,686.16 1107.41,695.326 1097.5,703C 1145.9,720.45 1181.4,752.283 1204,798.5C 1214.74,831.043 1207.57,858.876 1182.5,882C 1172.64,889.43 1161.64,894.43 1149.5,897C 1084.86,898.467 1020.19,898.967 955.5,898.5C 953.835,933.36 937.502,958.527 906.5,974C 899.731,976.776 892.731,978.776 885.5,980C 795.5,980.667 705.5,980.667 615.5,980C 571.514,970.517 548.181,943.351 545.5,898.5C 483.499,898.667 421.499,898.5 359.5,898C 317.142,891.976 294.475,867.643 291.5,825C 291.459,811.999 294.625,799.832 301,788.5C 324.439,747.733 358.272,719.233 402.5,703C 364.933,669.207 354.766,628.374 372,580.5C 388.295,545.042 415.795,524.708 454.5,519.5 Z M 464.5,552.5 C 503.852,554.688 527.685,575.021 536,613.5C 537.559,648.899 522.059,673.399 489.5,687C 453.714,696.189 425.881,685.355 406,654.5C 391.104,622.041 396.604,593.541 422.5,569C 434.923,559.281 448.923,553.781 464.5,552.5 Z M 1030.5,552.5 C 1068.98,554.486 1092.81,574.153 1102,611.5C 1104.63,646.416 1090.13,671.249 1058.5,686C 1018.03,697.628 988.198,684.795 969,647.5C 958.213,615.475 965.713,588.642 991.5,567C 1003.32,558.676 1016.32,553.843 1030.5,552.5 Z M 738.5,572.5 C 769.108,569.733 794.941,579.399 816,601.5C 838.765,632.825 841.432,665.825 824,700.5C 804.365,730.398 776.532,743.898 740.5,741C 706.473,736.408 682.973,718.241 670,686.5C 659.421,651.99 666.255,621.49 690.5,595C 704.389,582.887 720.389,575.387 738.5,572.5 Z M 451.5,725.5 C 514.459,722.564 563.626,746.897 599,798.5C 599.667,799.5 599.667,800.5 599,801.5C 579.812,819.348 564.479,840.015 553,863.5C 488.57,864.664 424.07,864.831 359.5,864C 343.511,861.43 332.677,852.597 327,837.5C 323.555,824.545 325.555,812.545 333,801.5C 360.518,757.648 400.018,732.315 451.5,725.5 Z M 1018.5,725.5 C 1077.94,722.311 1125.44,744.311 1161,791.5C 1165.4,798.243 1169.4,805.243 1173,812.5C 1178.7,839.606 1168.2,856.773 1141.5,864C 1076.83,864.833 1012.16,864.667 947.5,863.5C 936.137,839.792 920.637,819.126 901,801.5C 913.256,779.238 930.423,761.405 952.5,748C 973.069,735.978 995.069,728.478 1018.5,725.5 Z M 743.5,776.5 C 794.994,775.936 839.994,792.436 878.5,826C 896.689,843.188 910.523,863.354 920,886.5C 924.165,913.321 913.998,932.487 889.5,944C 884.65,945.732 879.65,946.732 874.5,947C 791.5,947.667 708.5,947.667 625.5,947C 597.173,943.172 581.506,927.005 578.5,898.5C 579.074,889.278 581.574,880.612 586,872.5C 621.443,812.848 673.943,780.848 743.5,776.5 Z"/></g>
<g><path style="opacity:0.97" fill="#000000" d="M 358.5,946.5 C 366.022,945.394 372.189,947.728 377,953.5C 447.068,1075.51 551.901,1148.01 691.5,1171C 826.312,1186.39 943.645,1148.72 1043.5,1058C 1075.03,1027.82 1101.2,993.653 1122,955.5C 1128.51,946.103 1137.01,943.937 1147.5,949C 1154.04,954.958 1155.87,962.124 1153,970.5C 1078.26,1102.53 965.426,1180.03 814.5,1203C 686.563,1218.89 570.896,1188.89 467.5,1113C 417.474,1073.32 377.308,1025.49 347,969.5C 344.509,958.481 348.342,950.814 358.5,946.5 Z"/></g>
<g><path style="opacity:0.97" fill="#000000" d="M 476.5,946.5 C 481.412,946.063 486.078,946.896 490.5,949C 550.28,1024.74 628.613,1066.74 725.5,1075C 842.817,1080.99 938.15,1038.65 1011.5,948C 1025.33,944.073 1033.66,949.073 1036.5,963C 1036.21,966.319 1035.38,969.485 1034,972.5C 955.83,1067.98 854.663,1113.82 730.5,1110C 622.648,1102.33 534.814,1056.83 467,973.5C 461.192,961.149 464.359,952.149 476.5,946.5 Z"/></g>
</svg>
