<?xml version="1.0" encoding="UTF-8"?>
<!DOCTYPE svg PUBLIC "-//W3C//DTD SVG 1.1//EN" "http://www.w3.org/Graphics/SVG/1.1/DTD/svg11.dtd">
<svg xmlns="http://www.w3.org/2000/svg" version="1.1" width="1501px" height="1500px" style="shape-rendering:geometricPrecision; text-rendering:geometricPrecision; image-rendering:optimizeQuality; fill-rule:evenodd; clip-rule:evenodd" xmlns:xlink="http://www.w3.org/1999/xlink">
<g><path style="opacity:0.988" fill="#000000" d="M 334.5,355.5 C 611.834,355.333 889.167,355.5 1166.5,356C 1175.84,359.344 1181.68,365.844 1184,375.5C 1184.99,456.223 1184.66,536.89 1183,617.5C 1182,619.5 1181,621.5 1180,623.5C 1134.98,666.912 1089.48,709.746 1043.5,752C 1116.71,768.877 1162.54,813.71 1181,886.5C 1182.54,894.096 1183.54,901.763 1184,909.5C 1184.67,959.5 1184.67,1009.5 1184,1059.5C 1179.31,1128.45 1146.14,1177.95 1084.5,1208C 1023.17,1231.97 964.84,1226.3 909.5,1191C 865.083,1156.67 841.916,1111.17 840,1054.5C 839.667,1017.83 839.333,981.167 839,944.5C 834.903,948.798 830.069,951.965 824.5,954C 776.5,954.667 728.5,954.667 680.5,954C 678.122,953.489 675.788,952.822 673.5,952C 555.699,843.201 438.199,734.034 321,624.5C 318.363,620.928 316.697,616.928 316,612.5C 315.333,534.167 315.333,455.833 316,377.5C 317.738,366.313 323.905,358.979 334.5,355.5 Z M 367.5,406.5 C 622.5,406.5 877.5,406.5 1132.5,406.5C 1132.5,422.833 1132.5,439.167 1132.5,455.5C 877.5,455.5 622.5,455.5 367.5,455.5C 367.5,439.167 367.5,422.833 367.5,406.5 Z M 367.5,506.5 C 622.5,506.5 877.5,506.5 1132.5,506.5C 1132.5,518.833 1132.5,531.167 1132.5,543.5C 1016.15,554.398 924.654,607.398 858,702.5C 848.615,716.763 840.115,731.596 832.5,747C 778.5,747.667 724.5,747.667 670.5,747C 612.914,636.471 522.581,569.804 399.5,547C 388.879,545.357 378.212,544.19 367.5,543.5C 367.5,531.167 367.5,518.833 367.5,506.5 Z M 367.5,595.5 C 477.278,607.76 560.111,661.094 616,755.5C 634.487,788.293 646.153,823.293 651,860.5C 555.929,772.589 461.429,684.256 367.5,595.5 Z M 1126.5,595.5 C 1128.6,595.201 1130.6,595.534 1132.5,596.5C 1076.34,649.822 1020.01,702.988 963.5,756C 911.839,772.659 875.006,805.826 853,855.5C 864.849,784.629 897.015,724.796 949.5,676C 999.763,630.206 1058.76,603.372 1126.5,595.5 Z M 691.5,799.5 C 731.835,799.333 772.168,799.5 812.5,800C 802.459,833.412 796.459,867.579 794.5,902.5C 766.165,902.667 737.831,902.5 709.5,902C 706.58,867.316 700.58,833.15 691.5,799.5 Z M 999.5,801.5 C 1011.58,801.093 1023.58,801.759 1035.5,803.5C 1035.67,815.505 1035.5,827.505 1035,839.5C 1033.07,852.762 1025.4,859.762 1012,860.5C 1002.08,860.251 995.08,855.585 991,846.5C 989.551,832.239 989.051,817.906 989.5,803.5C 993.011,803.101 996.344,802.434 999.5,801.5 Z M 936.5,827.5 C 935.433,850.227 941.933,870.561 956,888.5C 981.45,912.257 1010.62,918.09 1043.5,906C 1067.97,894.517 1082.14,875.351 1086,848.5C 1086.33,841.5 1086.67,834.5 1087,827.5C 1113.22,848.939 1128.22,876.606 1132,910.5C 1132.67,960.167 1132.67,1009.83 1132,1059.5C 1122.39,1128.94 1082.56,1166.27 1012.5,1171.5C 969.376,1170.36 935.542,1152.36 911,1117.5C 899.846,1098.7 893.512,1078.37 892,1056.5C 891.042,1005.81 891.375,955.144 893,904.5C 898.215,873.385 912.715,847.718 936.5,827.5 Z M 1010.5,1011.5 C 1030.47,1014.12 1037.97,1025.12 1033,1044.5C 1024.73,1057.59 1013.56,1060.75 999.5,1054C 988.412,1044.37 986.578,1033.2 994,1020.5C 998.516,1015.5 1004.02,1012.5 1010.5,1011.5 Z"/></g>
<g><path style="opacity:0.979" fill="#000000" d="M 450.5,841.5 C 464.433,839.217 474.6,844.217 481,856.5C 482.577,862.788 483.911,869.121 485,875.5C 487.986,881.82 492.819,885.987 499.5,888C 543.055,889.237 569.222,911.07 578,953.5C 577.149,962.6 579.149,970.933 584,978.5C 589.734,983.948 596.568,986.448 604.5,986C 621.638,990.814 628.471,1001.98 625,1019.5C 621.656,1028.84 615.156,1034.68 605.5,1037C 570.488,1037.91 545.654,1022.41 531,990.5C 527.471,979.799 525.804,968.799 526,957.5C 523.565,950.066 518.732,944.899 511.5,942C 486.265,941.96 465.098,932.793 448,914.5C 435.404,898.706 430.07,880.706 432,860.5C 435.017,850.984 441.184,844.651 450.5,841.5 Z"/></g>
<g><path style="opacity:0.982" fill="#000000" d="M 1008.5,959.5 C 1048.02,960.543 1073.52,979.877 1085,1017.5C 1089.76,1041.78 1084.76,1063.78 1070,1083.5C 1048.93,1105.41 1023.43,1113.24 993.5,1107C 957.219,1096.36 938.552,1072.03 937.5,1034C 941.249,990.086 964.916,965.253 1008.5,959.5 Z M 1010.5,1011.5 C 1004.02,1012.5 998.516,1015.5 994,1020.5C 986.578,1033.2 988.412,1044.37 999.5,1054C 1013.56,1060.75 1024.73,1057.59 1033,1044.5C 1037.97,1025.12 1030.47,1014.12 1010.5,1011.5 Z"/></g>
<g><path style="opacity:0.979" fill="#000000" d="M 409.5,972.5 C 421.897,971.449 431.397,976.116 438,986.5C 439.667,993.833 441.333,1001.17 443,1008.5C 446.472,1014.64 451.638,1018.47 458.5,1020C 493.794,1020.65 518.294,1037.15 532,1069.5C 533.313,1073.42 534.313,1077.42 535,1081.5C 535.225,1088.22 535.892,1094.88 537,1101.5C 542.067,1113.46 551.234,1118.96 564.5,1118C 583.299,1126.31 588.132,1139.81 579,1158.5C 570.894,1167.73 560.727,1171.23 548.5,1169C 505.397,1158.97 483.564,1131.81 483,1087.5C 480.076,1080.24 474.909,1075.41 467.5,1073C 428.728,1072.53 403.228,1054.03 391,1017.5C 387.022,1005.83 387.688,994.498 393,983.5C 397.356,977.92 402.856,974.253 409.5,972.5 Z"/></g>
</svg>
