<?xml version="1.0" encoding="UTF-8"?>
<!DOCTYPE svg PUBLIC "-//W3C//DTD SVG 1.1//EN" "http://www.w3.org/Graphics/SVG/1.1/DTD/svg11.dtd">
<svg xmlns="http://www.w3.org/2000/svg" version="1.1" width="1501px" height="1500px" style="shape-rendering:geometricPrecision; text-rendering:geometricPrecision; image-rendering:optimizeQuality; fill-rule:evenodd; clip-rule:evenodd" xmlns:xlink="http://www.w3.org/1999/xlink">
<g><path style="opacity:0.984" fill="#000000" d="M 1004.5,281.5 C 1030.01,281.394 1053.68,287.894 1075.5,301C 1107.28,322.442 1132.44,349.942 1151,383.5C 1174.08,424.497 1186.25,468.497 1187.5,515.5C 1185.78,590.829 1152.44,646.995 1087.5,684C 1086.94,684.725 1086.61,685.558 1086.5,686.5C 1103.81,808.81 1120.97,931.143 1138,1053.5C 1143.89,1111.21 1122.39,1155.38 1073.5,1186C 1032.16,1207.21 990.492,1207.88 948.5,1188C 898.411,1158.66 875.578,1114.83 880,1056.5C 897.029,932.794 914.196,809.128 931.5,685.5C 860.036,643.594 826.536,580.927 831,497.5C 838.257,427.828 866.757,368.661 916.5,320C 941.585,297.364 970.918,284.531 1004.5,281.5 Z M 1004.5,336.5 C 1020.87,336.507 1035.87,341.007 1049.5,350C 1072.66,366.488 1090.82,387.322 1104,412.5C 1121.68,444.407 1131.18,478.574 1132.5,515C 1131.81,560.368 1113.81,597.035 1078.5,625C 1032.21,656.275 985.88,656.275 939.5,625C 903.79,597.412 885.79,560.912 885.5,515.5C 887.616,461.632 906.116,414.299 941,373.5C 958.003,353.757 979.17,341.424 1004.5,336.5 Z M 984.5,701.5 C 1000.83,702.833 1017.17,702.833 1033.5,701.5C 1041.41,759.514 1049.41,817.514 1057.5,875.5C 1025.17,875.5 992.833,875.5 960.5,875.5C 968.5,817.5 976.5,759.5 984.5,701.5 Z M 952.5,930.5 C 990.167,930.5 1027.83,930.5 1065.5,930.5C 1071.62,975.164 1077.79,1019.83 1084,1064.5C 1085.75,1101.86 1069.58,1128.02 1035.5,1143C 1000.95,1153.48 972.114,1144.98 949,1117.5C 939.359,1104.08 934.192,1089.08 933.5,1072.5C 940.021,1025.19 946.354,977.854 952.5,930.5 Z"/></g>
<g><path style="opacity:0.987" fill="#000000" d="M 400.5,282.5 C 417.626,279.844 429.126,286.511 435,302.5C 435.5,371.166 435.667,439.833 435.5,508.5C 467.167,508.5 498.833,508.5 530.5,508.5C 530.333,439.499 530.5,370.499 531,301.5C 537.2,285.812 548.7,279.646 565.5,283C 575,285.833 581.167,292 584,301.5C 584.5,370.499 584.667,439.499 584.5,508.5C 616.167,508.5 647.833,508.5 679.5,508.5C 679.333,439.833 679.5,371.166 680,302.5C 686.683,284.922 699.183,278.755 717.5,284C 727.272,288.781 732.772,296.614 734,307.5C 734.667,404.167 734.667,500.833 734,597.5C 731.739,633.866 715.239,661.699 684.5,681C 669.577,689.364 653.577,693.531 636.5,693.5C 653.098,815.52 669.931,937.52 687,1059.5C 690.142,1111.38 670.642,1152.21 628.5,1182C 581.167,1209.33 533.833,1209.33 486.5,1182C 444.358,1152.21 424.858,1111.38 428,1059.5C 444.695,937.467 461.529,815.467 478.5,693.5C 436.988,691.497 407.154,671.831 389,634.5C 383.963,622.686 381.297,610.353 381,597.5C 380.333,500.833 380.333,404.167 381,307.5C 382.741,295.308 389.241,286.975 400.5,282.5 Z M 435.5,563.5 C 516.833,563.5 598.167,563.5 679.5,563.5C 679.862,577.208 679.362,590.874 678,604.5C 671.453,626.049 656.953,637.549 634.5,639C 583.167,639.667 531.833,639.667 480.5,639C 458.047,637.549 443.547,626.049 437,604.5C 435.638,590.874 435.138,577.208 435.5,563.5 Z M 533.5,693.5 C 549.167,693.5 564.833,693.5 580.5,693.5C 589.02,754.14 597.353,814.807 605.5,875.5C 573.16,875.833 540.826,875.5 508.5,874.5C 517.299,814.241 525.632,753.908 533.5,693.5 Z M 501.5,930.5 C 538.833,930.5 576.167,930.5 613.5,930.5C 619.665,974.486 625.832,1018.49 632,1062.5C 634.347,1100.66 618.18,1127.49 583.5,1143C 547.336,1153.72 517.836,1144.22 495,1114.5C 484.704,1098.65 480.704,1081.32 483,1062.5C 489.008,1018.43 495.175,974.428 501.5,930.5 Z"/></g>
</svg>
