<?xml version="1.0" encoding="UTF-8"?>
<!DOCTYPE svg PUBLIC "-//W3C//DTD SVG 1.1//EN" "http://www.w3.org/Graphics/SVG/1.1/DTD/svg11.dtd">
<svg xmlns="http://www.w3.org/2000/svg" version="1.1" width="1500px" height="1500px" style="shape-rendering:geometricPrecision; text-rendering:geometricPrecision; image-rendering:optimizeQuality; fill-rule:evenodd; clip-rule:evenodd" xmlns:xlink="http://www.w3.org/1999/xlink">
<g><path style="opacity:0.997" fill="#000000" d="M 516.5,300.5 C 671.834,300.333 827.167,300.5 982.5,301C 1079.3,311.164 1146.47,360.998 1184,450.5C 1191.74,471.849 1196.4,493.849 1198,516.5C 1198.67,671.833 1198.67,827.167 1198,982.5C 1187.84,1079.3 1138,1146.47 1048.5,1184C 1027.15,1191.74 1005.15,1196.4 982.5,1198C 827.167,1198.67 671.833,1198.67 516.5,1198C 419.698,1187.84 352.531,1138 315,1048.5C 307.263,1027.15 302.597,1005.15 301,982.5C 300.333,827.167 300.333,671.833 301,516.5C 308.077,439.805 343.243,379.972 406.5,337C 440.299,315.9 476.966,303.733 516.5,300.5 Z M 741.5,512.5 C 758.402,511.476 774.069,515.309 788.5,524C 860.292,583.457 931.792,643.29 1003,703.5C 1014.29,719.151 1014.29,734.818 1003,750.5C 998.55,755.61 993.05,759.11 986.5,761C 976.9,762.391 967.233,762.891 957.5,762.5C 957.667,826.501 957.5,890.501 957,954.5C 954.058,971.442 944.225,981.942 927.5,986C 891.502,986.5 855.502,986.667 819.5,986.5C 819.667,943.832 819.5,901.165 819,858.5C 814.451,827.616 797.284,807.449 767.5,798C 727.285,791.021 699.119,806.188 683,843.5C 681.524,848.406 680.524,853.406 680,858.5C 679.5,901.165 679.333,943.832 679.5,986.5C 643.498,986.667 607.498,986.5 571.5,986C 554.766,981.933 544.932,971.433 542,954.5C 541.5,890.501 541.333,826.501 541.5,762.5C 531.767,762.891 522.1,762.391 512.5,761C 496.667,754.992 488.334,743.492 487.5,726.5C 487.666,717.836 490.499,710.169 496,703.5C 566.5,644.333 637,585.167 707.5,526C 717.917,518.95 729.25,514.45 741.5,512.5 Z"/></g>
</svg>
