<?xml version="1.0" encoding="UTF-8"?>
<!DOCTYPE svg PUBLIC "-//W3C//DTD SVG 1.1//EN" "http://www.w3.org/Graphics/SVG/1.1/DTD/svg11.dtd">
<svg xmlns="http://www.w3.org/2000/svg" version="1.1" width="1500px" height="1500px" style="shape-rendering:geometricPrecision; text-rendering:geometricPrecision; image-rendering:optimizeQuality; fill-rule:evenodd; clip-rule:evenodd" xmlns:xlink="http://www.w3.org/1999/xlink">
<g><path style="opacity:0.989" fill="#000000" d="M 406.5,185.5 C 450.501,185.333 494.501,185.5 538.5,186C 548.78,187.613 555.28,193.447 558,203.5C 558.667,564.167 558.667,924.833 558,1285.5C 555.5,1294.67 549.667,1300.5 540.5,1303C 495.5,1303.67 450.5,1303.67 405.5,1303C 394.928,1300.7 388.761,1294.2 387,1283.5C 386.333,924.5 386.333,565.5 387,206.5C 389.233,195.437 395.733,188.437 406.5,185.5 Z M 447.5,267.5 C 465.88,267.067 484.214,267.567 502.5,269C 514,276.502 515.334,285.502 506.5,296C 504.725,297.439 502.725,298.439 500.5,299C 481.102,299.962 461.768,299.629 442.5,298C 430.808,290.238 429.808,281.238 439.5,271C 442.158,269.522 444.825,268.355 447.5,267.5 Z M 443.5,383.5 C 454.838,383.333 466.172,383.5 477.5,384C 487.871,389.114 490.705,396.948 486,407.5C 483.635,410.869 480.468,413.036 476.5,414C 464.762,414.935 453.095,414.602 441.5,413C 432.654,406.785 430.821,398.951 436,389.5C 438.114,386.879 440.614,384.879 443.5,383.5 Z M 444.5,498.5 C 463.17,498.333 481.836,498.5 500.5,499C 511.686,503.554 514.853,511.387 510,522.5C 507.736,525.433 504.902,527.6 501.5,529C 482.167,529.667 462.833,529.667 443.5,529C 432.462,522.682 430.296,514.182 437,503.5C 439.479,501.686 441.979,500.019 444.5,498.5 Z M 445.5,613.5 C 455.506,613.334 465.506,613.5 475.5,614C 484.776,616.72 488.943,622.886 488,632.5C 486.348,639.743 481.848,643.909 474.5,645C 465.167,645.667 455.833,645.667 446.5,645C 434.716,640.934 430.883,633.101 435,621.5C 437.831,617.821 441.331,615.154 445.5,613.5 Z M 446.5,728.5 C 465.222,728.052 483.888,728.552 502.5,730C 510.018,733.868 513.185,740.035 512,748.5C 510.066,754.767 505.9,758.601 499.5,760C 481.5,760.667 463.5,760.667 445.5,760C 433.278,755.249 430.111,747.082 436,735.5C 438.998,732.262 442.498,729.929 446.5,728.5 Z M 443.5,844.5 C 454.838,844.333 466.172,844.5 477.5,845C 488.11,850.048 490.943,857.882 486,868.5C 483.635,871.869 480.468,874.036 476.5,875C 465.833,875.667 455.167,875.667 444.5,875C 433.183,869.732 430.35,861.565 436,850.5C 438.114,847.879 440.614,845.879 443.5,844.5 Z M 444.5,959.5 C 463.503,959.333 482.503,959.5 501.5,960C 511.871,965.114 514.705,972.948 510,983.5C 507.736,986.433 504.902,988.6 501.5,990C 482.167,990.667 462.833,990.667 443.5,990C 433.019,984.239 430.519,976.072 436,965.5C 438.671,963.098 441.505,961.098 444.5,959.5 Z M 445.5,1074.5 C 456.91,1074.07 468.244,1074.57 479.5,1076C 491.11,1084.93 491.443,1094.27 480.5,1104C 478.285,1105.04 475.952,1105.71 473.5,1106C 464.833,1106.67 456.167,1106.67 447.5,1106C 438.738,1104.24 433.738,1098.9 432.5,1090C 433.701,1082.04 438.034,1076.88 445.5,1074.5 Z M 446.5,1189.5 C 464.17,1189.33 481.836,1189.5 499.5,1190C 509.084,1193 513.251,1199.5 512,1209.5C 510.066,1215.77 505.9,1219.6 499.5,1221C 481.5,1221.67 463.5,1221.67 445.5,1221C 433.934,1216.7 430.434,1208.87 435,1197.5C 437.961,1193.34 441.795,1190.67 446.5,1189.5 Z"/></g>
<g><path style="opacity:0.962" fill="#000000" d="M 590.5,365.5 C 692.167,365.333 793.834,365.5 895.5,366C 906.904,369.973 911.07,377.807 908,389.5C 905.673,394.423 901.84,397.59 896.5,399C 794.501,399.5 692.501,399.667 590.5,399.5C 590.5,388.167 590.5,376.833 590.5,365.5 Z"/></g>
<g><path style="opacity:0.992" fill="#000000" d="M 877.5,444.5 C 929.836,440.752 970.003,460.752 998,504.5C 1022.81,553.162 1019.15,599.495 987,643.5C 951.844,682.421 908.678,695.587 857.5,683C 807.093,665.587 778.26,630.42 771,577.5C 768.08,526.167 788.247,487 831.5,460C 846.045,452.097 861.378,446.93 877.5,444.5 Z"/></g>
<g><path style="opacity:0.989" fill="#000000" d="M 791.5,682.5 C 843.946,723.114 900.613,729.947 961.5,703C 972.188,697.326 982.188,690.659 991.5,683C 992.167,682.333 992.833,682.333 993.5,683C 1040.33,729.833 1087.17,776.667 1134,823.5C 1146.9,841.759 1146.56,859.759 1133,877.5C 1120,890.036 1104.83,893.536 1087.5,888C 1082.9,885.73 1078.57,883.063 1074.5,880C 1051.33,856.833 1028.17,833.667 1005,810.5C 1004.5,830.497 1004.33,850.497 1004.5,870.5C 929.833,870.5 855.167,870.5 780.5,870.5C 780.667,850.164 780.5,829.831 780,809.5C 755.5,834 731,858.5 706.5,883C 685.721,894.957 666.888,892.457 650,875.5C 638.667,858.5 638.667,841.5 650,824.5C 697.368,777.299 744.535,729.965 791.5,682.5 Z"/></g>
<g><path style="opacity:0.984" fill="#000000" d="M 781.5,901.5 C 855.5,901.5 929.5,901.5 1003.5,901.5C 1001.2,931.07 991.368,957.737 974,981.5C 946.264,1011.52 912.098,1023.02 871.5,1016C 834.632,1008.79 808.799,987.961 794,953.5C 787.098,936.823 782.931,919.49 781.5,901.5 Z"/></g>
<g><path style="opacity:0.985" fill="#000000" d="M 767.5,972.5 C 779.364,994.869 795.697,1013.37 816.5,1028C 823.342,1031.92 830.342,1035.59 837.5,1039C 833.456,1044.92 829.789,1051.09 826.5,1057.5C 839.296,1092.39 851.796,1127.39 864,1162.5C 870.934,1191.47 860.767,1211.63 833.5,1223C 810.627,1228.6 792.461,1221.77 779,1202.5C 762.11,1157.38 745.776,1112.05 730,1066.5C 726.465,1055.38 726.798,1044.38 731,1033.5C 743.189,1013.11 755.356,992.778 767.5,972.5 Z"/></g>
<g><path style="opacity:0.986" fill="#000000" d="M 1015.5,972.5 C 1016.38,972.369 1017.04,972.702 1017.5,973.5C 1029.13,992.965 1040.97,1012.3 1053,1031.5C 1056.81,1041.27 1057.81,1051.27 1056,1061.5C 1039.99,1109.2 1022.99,1156.54 1005,1203.5C 988.01,1225.37 966.843,1230.54 941.5,1219C 922.303,1206.09 915.136,1188.26 920,1165.5C 932.641,1129.24 945.475,1093.07 958.5,1057C 954.708,1051.25 951.042,1045.42 947.5,1039.5C 978.153,1025.18 1000.82,1002.85 1015.5,972.5 Z"/></g>
<g><path style="opacity:0.963" fill="#000000" d="M 590.5,1269.5 C 824.5,1269.33 1058.5,1269.5 1292.5,1270C 1304.26,1273.01 1308.76,1280.51 1306,1292.5C 1303.74,1297.76 1299.91,1301.26 1294.5,1303C 1058.17,1303.5 821.834,1303.67 585.5,1303.5C 589.216,1292.49 590.883,1281.16 590.5,1269.5 Z"/></g>
</svg>
