<?xml version="1.0" encoding="UTF-8"?>
<!DOCTYPE svg PUBLIC "-//W3C//DTD SVG 1.1//EN" "http://www.w3.org/Graphics/SVG/1.1/DTD/svg11.dtd">
<svg xmlns="http://www.w3.org/2000/svg" version="1.1" width="1501px" height="1500px" style="shape-rendering:geometricPrecision; text-rendering:geometricPrecision; image-rendering:optimizeQuality; fill-rule:evenodd; clip-rule:evenodd" xmlns:xlink="http://www.w3.org/1999/xlink">
<g><path style="opacity:0.977" fill="#000000" d="M 942.5,236.5 C 978.181,234.414 1010.18,244.081 1038.5,265.5C 1079.17,235.723 1123.51,228.889 1171.5,245C 1222.41,265.611 1252.24,303.111 1261,357.5C 1264.71,391.629 1259.37,424.296 1245,455.5C 1228.97,488.509 1208.64,518.509 1184,545.5C 1157.05,574.673 1127.22,600.173 1094.5,622C 1083.53,629.072 1072.03,635.239 1060,640.5C 1059.67,846.833 1059.33,1053.17 1059,1259.5C 1057.27,1267.56 1052.44,1272.73 1044.5,1275C 838.833,1275.67 633.167,1275.67 427.5,1275C 378.685,1267.19 346.852,1239.69 332,1192.5C 330.742,1186.88 329.742,1181.21 329,1175.5C 328.333,923.167 328.333,670.833 329,418.5C 336.035,370.248 362.535,338.082 408.5,322C 415.741,320.152 423.074,318.818 430.5,318C 563.168,317.833 695.835,317.333 828.5,316.5C 852.228,269.625 890.228,242.959 942.5,236.5 Z M 953.5,277.5 C 975.402,278.078 995.069,284.911 1012.5,298C 1017.83,302.667 1023.17,307.333 1028.5,312C 1036.02,315.544 1043.35,315.21 1050.5,311C 1086.07,275.461 1126.4,268.794 1171.5,291C 1208.09,314.346 1224.25,347.846 1220,391.5C 1217.61,410.066 1212.28,427.733 1204,444.5C 1171.65,502.858 1127.48,550.358 1071.5,587C 1061.61,593.114 1051.27,598.448 1040.5,603C 1038.09,603.484 1035.75,603.15 1033.5,602C 983.158,575.34 940.324,539.507 905,494.5C 884.862,469.898 870.195,442.231 861,411.5C 849.461,368.472 859.628,331.638 891.5,301C 909.699,286.546 930.365,278.713 953.5,277.5 Z M 430.5,359.5 C 433.5,359.5 436.5,359.5 439.5,359.5C 439.5,590.167 439.5,820.833 439.5,1051.5C 413.89,1051.87 391.056,1059.87 371,1075.5C 370.333,856.5 370.333,637.5 371,418.5C 378.133,385.866 397.967,366.199 430.5,359.5 Z M 481.5,359.5 C 592.833,359.5 704.167,359.5 815.5,359.5C 812.569,398.447 820.403,435.113 839,469.5C 873.32,529.493 919.153,578.993 976.5,618C 989.468,626.402 1002.97,633.902 1017,640.5C 1017.5,777.5 1017.67,914.5 1017.5,1051.5C 838.833,1051.5 660.167,1051.5 481.5,1051.5C 481.5,820.833 481.5,590.167 481.5,359.5 Z M 587.5,819.5 C 695.5,819.5 803.5,819.5 911.5,819.5C 911.5,866.5 911.5,913.5 911.5,960.5C 803.5,960.5 695.5,960.5 587.5,960.5C 587.5,913.5 587.5,866.5 587.5,819.5 Z M 430.5,1093.5 C 626.167,1093.5 821.833,1093.5 1017.5,1093.5C 1017.5,1109.83 1017.5,1126.17 1017.5,1142.5C 824.166,1142.33 630.833,1142.5 437.5,1143C 426.372,1145.3 420.372,1152.13 419.5,1163.5C 420.149,1173.98 425.482,1180.82 435.5,1184C 629.5,1184.5 823.5,1184.67 1017.5,1184.5C 1017.5,1201.17 1017.5,1217.83 1017.5,1234.5C 823.833,1234.67 630.166,1234.5 436.5,1234C 401.168,1229.67 379.334,1210.17 371,1175.5C 368.157,1131.47 387.99,1104.13 430.5,1093.5 Z"/></g>
<g><path style="opacity:0.986" fill="#000000" d="M 564.5,777.5 C 687.834,777.333 811.167,777.5 934.5,778C 942.87,779.263 948.703,783.763 952,791.5C 952.667,856.833 952.667,922.167 952,987.5C 949.833,994.333 945.333,998.833 938.5,1001C 812.5,1001.67 686.5,1001.67 560.5,1001C 553.572,998.406 549.072,993.573 547,986.5C 546.333,922.167 546.333,857.833 547,793.5C 549.886,784.774 555.719,779.441 564.5,777.5 Z M 587.5,819.5 C 587.5,866.5 587.5,913.5 587.5,960.5C 695.5,960.5 803.5,960.5 911.5,960.5C 911.5,913.5 911.5,866.5 911.5,819.5C 803.5,819.5 695.5,819.5 587.5,819.5 Z"/></g>
<g><path style="opacity:0.988" fill="#000000" d="M 652.5,869.5 C 717.501,869.333 782.501,869.5 847.5,870C 861.596,877.291 865.096,888.124 858,902.5C 855.072,906.381 851.239,908.881 846.5,910C 781.833,910.667 717.167,910.667 652.5,910C 643.377,906.53 638.377,899.864 637.5,890C 638.036,879.715 643.036,872.882 652.5,869.5 Z"/></g>
</svg>
