<?xml version="1.0" encoding="UTF-8"?>
<!DOCTYPE svg PUBLIC "-//W3C//DTD SVG 1.1//EN" "http://www.w3.org/Graphics/SVG/1.1/DTD/svg11.dtd">
<svg xmlns="http://www.w3.org/2000/svg" version="1.1" width="1501px" height="1500px" style="shape-rendering:geometricPrecision; text-rendering:geometricPrecision; image-rendering:optimizeQuality; fill-rule:evenodd; clip-rule:evenodd" xmlns:xlink="http://www.w3.org/1999/xlink">
<g><path style="opacity:0.983" fill="#000000" d="M 528.5,385.5 C 676.167,385.333 823.834,385.5 971.5,386C 1032.43,392.197 1079.6,420.697 1113,471.5C 1129.87,499.114 1138.87,529.114 1140,561.5C 1140.67,652.5 1140.67,743.5 1140,834.5C 1134.39,908.278 1098.55,961.444 1032.5,994C 1013.68,1002.29 994.01,1007.29 973.5,1009C 935.833,1009.67 898.167,1009.67 860.5,1009C 841.928,1001.35 836.428,988.185 844,969.5C 847.368,963.797 852.201,959.963 858.5,958C 895.787,956.691 933.12,956.025 970.5,956C 1020.18,948.981 1055.68,922.815 1077,877.5C 1082.86,863.413 1086.19,848.746 1087,833.5C 1087.67,742.833 1087.67,652.167 1087,561.5C 1082.15,507.922 1055.31,470.089 1006.5,448C 994.594,443.273 982.26,440.273 969.5,439C 823.167,438.333 676.833,438.333 530.5,439C 475.051,446.794 437.884,476.961 419,529.5C 416.694,537.363 415.027,545.363 414,553.5C 413.333,649.5 413.333,745.5 414,841.5C 420.841,888.045 445.007,922.212 486.5,944C 500.17,950.335 514.503,954.335 529.5,956C 566.88,956.025 604.213,956.691 641.5,958C 656.321,963.857 662.154,974.69 659,990.5C 656.067,1000.43 649.567,1006.6 639.5,1009C 601.833,1009.67 564.167,1009.67 526.5,1009C 456.973,1000.67 406.806,965.169 376,902.5C 367.871,883.983 362.871,864.65 361,844.5C 360.333,746.5 360.333,648.5 361,550.5C 370.034,480.236 406.534,430.069 470.5,400C 489.251,392.312 508.585,387.479 528.5,385.5 Z M 542.5,607.5 C 561.585,606.103 574.085,614.436 580,632.5C 581.598,654.909 571.264,667.909 549,671.5C 533.202,669.787 522.869,661.454 518,646.5C 515.564,626.685 523.73,613.685 542.5,607.5 Z"/></g>
<g><path style="opacity:0.982" fill="#000000" d="M 537.5,554.5 C 579.889,551.763 610.056,569.43 628,607.5C 639.007,639.125 634.34,668.125 614,694.5C 587.579,721.981 556.079,730.147 519.5,719C 476.984,699.814 459.151,666.981 466,620.5C 475.963,583.367 499.796,561.367 537.5,554.5 Z M 542.5,607.5 C 523.73,613.685 515.564,626.685 518,646.5C 522.869,661.454 533.202,669.787 549,671.5C 571.264,667.909 581.598,654.909 580,632.5C 574.085,614.436 561.585,606.103 542.5,607.5 Z"/></g>
<g><path style="opacity:0.979" fill="#000000" d="M 704.5,554.5 C 804.167,554.333 903.834,554.5 1003.5,555C 1019.77,561.031 1025.93,572.531 1022,589.5C 1018.22,599.475 1011.06,605.308 1000.5,607C 902.833,607.667 805.167,607.667 707.5,607C 692.992,604.174 685.326,595.341 684.5,580.5C 685.575,567.437 692.241,558.77 704.5,554.5 Z"/></g>
<g><path style="opacity:0.983" fill="#000000" d="M 704.5,658.5 C 804.501,658.333 904.501,658.5 1004.5,659C 1020.01,665.522 1025.84,677.022 1022,693.5C 1017.74,703.423 1010.24,709.256 999.5,711C 902.833,711.667 806.167,711.667 709.5,711C 694.049,708.959 685.716,700.126 684.5,684.5C 685.605,671.412 692.271,662.746 704.5,658.5 Z"/></g>
<g><path style="opacity:0.984" fill="#000000" d="M 501.5,761.5 C 667.167,761.333 832.834,761.5 998.5,762C 1013.95,764.041 1022.28,772.874 1023.5,788.5C 1022.69,801.141 1016.35,809.641 1004.5,814C 835.167,814.667 665.833,814.667 496.5,814C 481.12,808.082 474.953,796.916 478,780.5C 482.188,769.463 490.022,763.129 501.5,761.5 Z"/></g>
<g><path style="opacity:0.972" fill="#000000" d="M 732.5,956.5 C 744.171,956.333 755.838,956.5 767.5,957C 781.57,960.237 788.903,969.07 789.5,983.5C 788.62,996.546 781.954,1005.05 769.5,1009C 756.5,1009.67 743.5,1009.67 730.5,1009C 716.28,1003.78 709.78,993.612 711,978.5C 713.708,966.627 720.875,959.293 732.5,956.5 Z"/></g>
<g><path style="opacity:0.979" fill="#000000" d="M 602.5,1060.5 C 701.167,1060.33 799.834,1060.5 898.5,1061C 913.77,1065.95 920.603,1076.45 919,1092.5C 916.167,1103.33 909.333,1110.17 898.5,1113C 799.5,1113.67 700.5,1113.67 601.5,1113C 588.593,1109.22 581.593,1100.55 580.5,1087C 581.648,1072.8 588.981,1063.96 602.5,1060.5 Z"/></g>
</svg>
