<?xml version="1.0" encoding="UTF-8"?>
<!DOCTYPE svg PUBLIC "-//W3C//DTD SVG 1.1//EN" "http://www.w3.org/Graphics/SVG/1.1/DTD/svg11.dtd">
<svg xmlns="http://www.w3.org/2000/svg" version="1.1" width="1501px" height="1500px" style="shape-rendering:geometricPrecision; text-rendering:geometricPrecision; image-rendering:optimizeQuality; fill-rule:evenodd; clip-rule:evenodd" xmlns:xlink="http://www.w3.org/1999/xlink">
<g><path style="opacity:0.985" fill="#000000" d="M 733.5,291.5 C 896.188,290.431 1026.02,354.431 1123,483.5C 1191.42,581.175 1217.75,689.175 1202,807.5C 1191.99,822.91 1178.15,827.744 1160.5,822C 1149.52,817.005 1143.02,808.505 1141,796.5C 1152.86,655.329 1105.69,538.496 999.5,446C 898.789,366.827 785.455,340.494 659.5,367C 525.302,402.536 432.469,484.703 381,613.5C 340.732,730.558 351.066,842.891 412,950.5C 478.028,1056.65 573.195,1119.49 697.5,1139C 708.467,1140.36 719.467,1141.36 730.5,1142C 753.524,1142.46 776.524,1142.12 799.5,1141C 815.714,1145.54 824.047,1156.21 824.5,1173C 823.726,1191.11 814.392,1201.78 796.5,1205C 641.242,1217.08 511.075,1166.24 406,1052.5C 316.741,947.549 280.074,826.216 296,688.5C 318.022,546.848 388.855,437.348 508.5,360C 577.658,317.891 652.658,295.058 733.5,291.5 Z M 739.5,569.5 C 778.579,567.443 805.412,584.443 820,620.5C 829.549,662.564 815.049,693.064 776.5,712C 737.821,723.776 707.321,712.943 685,679.5C 668.269,644.044 674.103,612.878 702.5,586C 713.563,577.486 725.896,571.986 739.5,569.5 Z"/></g>
<g><path style="opacity:0.985" fill="#000000" d="M 736.5,504.5 C 801.438,502.035 848.271,529.702 877,587.5C 899.444,647.622 888.277,700.455 843.5,746C 803.894,779.481 758.894,789.481 708.5,776C 650.918,755.689 618.418,715.189 611,654.5C 609.007,589.539 637.174,543.039 695.5,515C 708.854,509.745 722.521,506.245 736.5,504.5 Z M 739.5,569.5 C 725.896,571.986 713.563,577.486 702.5,586C 674.103,612.878 668.269,644.044 685,679.5C 707.321,712.943 737.821,723.776 776.5,712C 815.049,693.064 829.549,662.564 820,620.5C 805.412,584.443 778.579,567.443 739.5,569.5 Z"/></g>
<g><path style="opacity:0.985" fill="#000000" d="M 1015.5,844.5 C 1085.2,842.931 1139.7,870.597 1179,927.5C 1210.14,979.114 1215.81,1033.45 1196,1090.5C 1171.72,1149.78 1128.56,1187.28 1066.5,1203C 991.802,1216.66 930.302,1194.5 882,1136.5C 846.708,1087.7 836.708,1034.03 852,975.5C 871.738,913.428 912.572,872.262 974.5,852C 988.087,848.247 1001.75,845.747 1015.5,844.5 Z M 1016.5,909.5 C 1074.98,908.846 1115.15,935.513 1137,989.5C 1151.78,1047.85 1134.28,1093.68 1084.5,1127C 1034.92,1151.72 988.921,1146.39 946.5,1111C 909.737,1072.52 900.903,1028.35 920,978.5C 939.936,938.444 972.102,915.444 1016.5,909.5 Z"/></g>
<g><path style="opacity:0.984" fill="#000000" d="M 726.5,850.5 C 743.503,850.333 760.503,850.5 777.5,851C 785.223,851.59 792.889,852.59 800.5,854C 820.695,861.215 828.195,875.382 823,896.5C 817.386,910.473 807.053,917.473 792,917.5C 723.036,907.751 660.536,923.251 604.5,964C 595.233,971.264 586.566,979.264 578.5,988C 559.468,999.228 543.302,996.061 530,978.5C 524.523,965.583 525.523,953.25 533,941.5C 586.134,887.353 650.634,857.02 726.5,850.5 Z"/></g>
</svg>
