<?xml version="1.0" encoding="UTF-8"?>
<!DOCTYPE svg PUBLIC "-//W3C//DTD SVG 1.1//EN" "http://www.w3.org/Graphics/SVG/1.1/DTD/svg11.dtd">
<svg xmlns="http://www.w3.org/2000/svg" version="1.1" width="1501px" height="1500px" style="shape-rendering:geometricPrecision; text-rendering:geometricPrecision; image-rendering:optimizeQuality; fill-rule:evenodd; clip-rule:evenodd" xmlns:xlink="http://www.w3.org/1999/xlink">
<g><path style="opacity:0.987" fill="#000000" d="M 732.5,326.5 C 788.479,321.523 833.313,341.189 867,385.5C 881.57,406.877 889.57,430.543 891,456.5C 891.5,469.496 891.667,482.496 891.5,495.5C 952.834,495.333 1014.17,495.5 1075.5,496C 1115.66,502.164 1142.49,524.331 1156,562.5C 1160.01,576.641 1161.01,590.975 1159,605.5C 1129,770.167 1099,934.833 1069,1099.5C 1058.21,1137.95 1033.38,1161.78 994.5,1171C 913.026,1172.16 831.526,1172.66 750,1172.5C 670.833,1172.33 591.667,1172.17 512.5,1172C 471.289,1164.78 444.456,1141.28 432,1101.5C 401.667,936.833 371.333,772.167 341,607.5C 335.282,560.616 353.116,526.116 394.5,504C 403.775,499.931 413.442,497.264 423.5,496C 485.166,495.5 546.832,495.333 608.5,495.5C 604.331,459.839 610.498,426.172 627,394.5C 651.31,355.089 686.477,332.422 732.5,326.5 Z M 740.5,383.5 C 778.889,380.938 807.389,396.271 826,429.5C 828.399,435.363 830.399,441.363 832,447.5C 833.422,463.451 833.922,479.451 833.5,495.5C 777.5,495.5 721.5,495.5 665.5,495.5C 665.168,480.467 665.668,465.467 667,450.5C 676.81,411.849 701.31,389.516 740.5,383.5 Z M 431.5,552.5 C 490.5,552.5 549.5,552.5 608.5,552.5C 608.03,583.883 608.53,615.216 610,646.5C 617.407,662.119 629.574,667.953 646.5,664C 655.732,660.434 661.899,653.934 665,644.5C 665.5,613.835 665.667,583.168 665.5,552.5C 721.5,552.5 777.5,552.5 833.5,552.5C 833.038,583.542 833.538,614.542 835,645.5C 842.154,662.16 854.654,668.326 872.5,664C 881.427,660.74 887.261,654.573 890,645.5C 891.462,614.542 891.962,583.542 891.5,552.5C 950.168,552.333 1008.83,552.5 1067.5,553C 1085.79,555.957 1096.96,566.457 1101,584.5C 1101.66,590.548 1101.33,596.548 1100,602.5C 1070.67,763.833 1041.33,925.167 1012,1086.5C 1006.77,1102.4 995.935,1111.9 979.5,1115C 826.167,1115.67 672.833,1115.67 519.5,1115C 498.714,1110.65 487.214,1097.82 485,1076.5C 456,916.833 427,757.167 398,597.5C 396.082,572.642 407.249,557.642 431.5,552.5 Z"/></g>
<g><path style="opacity:0.973" fill="#000000" d="M 633.5,720.5 C 711.167,720.333 788.834,720.5 866.5,721C 885.865,726.224 893.699,738.724 890,758.5C 885.779,769.391 877.946,775.891 866.5,778C 788.833,778.667 711.167,778.667 633.5,778C 613.344,772.875 605.51,760.041 610,739.5C 614.742,729.228 622.576,722.894 633.5,720.5 Z"/></g>
<g><path style="opacity:0.987" fill="#000000" d="M 631.5,833.5 C 710.501,833.333 789.501,833.5 868.5,834C 886.577,839.645 893.744,851.812 890,870.5C 886.833,880.333 880.333,886.833 870.5,890C 790.167,890.667 709.833,890.667 629.5,890C 612.047,883.262 605.547,870.762 610,852.5C 613.948,842.377 621.115,836.044 631.5,833.5 Z"/></g>
<g><path style="opacity:0.991" fill="#000000" d="M 630.5,946.5 C 710.167,946.333 789.834,946.5 869.5,947C 883.123,951.055 890.456,960.221 891.5,974.5C 890.821,989.712 883.155,999.212 868.5,1003C 789.167,1003.67 709.833,1003.67 630.5,1003C 613.95,997.433 606.783,985.933 609,968.5C 612.359,957.309 619.526,949.976 630.5,946.5 Z"/></g>
</svg>
