<?xml version="1.0" encoding="UTF-8"?>
<!DOCTYPE svg PUBLIC "-//W3C//DTD SVG 1.1//EN" "http://www.w3.org/Graphics/SVG/1.1/DTD/svg11.dtd">
<svg xmlns="http://www.w3.org/2000/svg" version="1.1" width="1500px" height="1500px" style="shape-rendering:geometricPrecision; text-rendering:geometricPrecision; image-rendering:optimizeQuality; fill-rule:evenodd; clip-rule:evenodd" xmlns:xlink="http://www.w3.org/1999/xlink">
<g><path style="opacity:0.994" fill="#000000" d="M 520.5,280.5 C 653.5,280.333 786.5,280.5 919.5,281C 938.232,285.398 950.065,296.898 955,315.5C 955.167,358.171 955.667,400.837 956.5,443.5C 986.13,451.297 1004.96,469.963 1013,499.5C 1014.48,563.802 1014.98,628.135 1014.5,692.5C 1031.9,692.042 1049.24,692.542 1066.5,694C 1069.43,696.264 1071.6,699.098 1073,702.5C 1073.67,735.167 1073.67,767.833 1073,800.5C 1071.17,805 1068,808.167 1063.5,810C 1047.17,810.5 1030.84,810.667 1014.5,810.5C 1014.98,874.865 1014.48,939.198 1013,1003.5C 1004.96,1033.04 986.13,1051.7 956.5,1059.5C 955.667,1102.16 955.167,1144.83 955,1187.5C 949.948,1206.55 937.781,1218.05 918.5,1222C 786.167,1222.67 653.833,1222.67 521.5,1222C 501.784,1217.95 489.617,1206.12 485,1186.5C 484.833,1144.16 484.333,1101.83 483.5,1059.5C 450.9,1050.73 431.734,1029.73 426,996.5C 425.333,833.167 425.333,669.833 426,506.5C 431.762,473.239 450.928,452.239 483.5,443.5C 484.333,401.171 484.833,358.837 485,316.5C 489.681,297.319 501.515,285.319 520.5,280.5 Z M 493.5,472.5 C 644.5,472.333 795.5,472.5 946.5,473C 962.625,475.789 974.125,484.622 981,499.5C 982.616,503.347 983.616,507.347 984,511.5C 984.667,671.5 984.667,831.5 984,991.5C 979.827,1013.01 966.994,1025.84 945.5,1030C 795.167,1030.67 644.833,1030.67 494.5,1030C 472.119,1025.62 459.286,1012.12 456,989.5C 455.333,830.833 455.333,672.167 456,513.5C 459.328,491.342 471.828,477.676 493.5,472.5 Z M 779.5,620.5 C 845.605,629.452 891.105,664.785 916,726.5C 937.165,804.667 917.998,871.167 858.5,926C 802.634,971.311 740.634,982.311 672.5,959C 615.511,932.491 582.844,887.991 574.5,825.5C 593.17,825.667 611.836,825.5 630.5,825C 693.568,817.736 738.735,785.57 766,728.5C 773.314,711.577 777.647,693.91 779,675.5C 779.5,657.17 779.667,638.836 779.5,620.5 Z"/></g>
<g><path style="opacity:0.973" fill="#000000" d="M 497.5,500.5 C 528.168,500.333 558.835,500.5 589.5,501C 598.144,502.308 602.477,507.308 602.5,516C 602.733,519.459 601.899,522.626 600,525.5C 578.833,546.667 557.667,567.833 536.5,589C 555.5,589.333 574.5,589.667 593.5,590C 601.915,594.348 604.748,601.181 602,610.5C 599.778,614.388 596.612,617.221 592.5,619C 559.833,619.667 527.167,619.667 494.5,619C 484.846,614.178 482.013,606.678 486,596.5C 507.5,575 529,553.5 550.5,532C 531.102,531.963 511.769,531.296 492.5,530C 485.46,525.745 482.96,519.578 485,511.5C 486.891,505.153 491.057,501.486 497.5,500.5 Z"/></g>
<g><path style="opacity:0.933" fill="#000000" d="M 820.5,500.5 C 836.015,501.87 841.182,509.87 836,524.5C 827.333,533.833 818.667,533.833 810,524.5C 805.108,512.666 808.608,504.666 820.5,500.5 Z"/></g>
<g><path style="opacity:0.954" fill="#000000" d="M 879.5,500.5 C 901.886,500.043 924.22,500.543 946.5,502C 954.61,506.064 957.443,512.564 955,521.5C 953.073,526.428 949.573,529.594 944.5,531C 922.5,531.667 900.5,531.667 878.5,531C 867.327,526.491 864.16,518.657 869,507.5C 871.701,503.748 875.201,501.415 879.5,500.5 Z"/></g>
<g><path style="opacity:0.971" fill="#000000" d="M 758.5,589.5 C 825.691,589.014 879.524,615.347 920,668.5C 954.696,720.006 964.363,776.006 949,836.5C 925.43,916.403 873.93,968.903 794.5,994C 725.609,1012.56 663.609,999.557 608.5,955C 563.884,914.841 542.384,864.674 544,804.5C 545.5,800.333 548.333,797.5 552.5,796C 579.519,795.872 606.519,795.206 633.5,794C 690.99,784.172 728.156,751.339 745,695.5C 747.696,684.667 749.03,673.667 749,662.5C 749.333,641.167 749.667,619.833 750,598.5C 751.688,594.315 754.521,591.315 758.5,589.5 Z M 779.5,620.5 C 779.667,638.836 779.5,657.17 779,675.5C 777.647,693.91 773.314,711.577 766,728.5C 738.735,785.57 693.568,817.736 630.5,825C 611.836,825.5 593.17,825.667 574.5,825.5C 582.844,887.991 615.511,932.491 672.5,959C 740.634,982.311 802.634,971.311 858.5,926C 917.998,871.167 937.165,804.667 916,726.5C 891.105,664.785 845.605,629.452 779.5,620.5 Z"/></g>
<g><path style="opacity:0.96" fill="#000000" d="M 586.5,647.5 C 606.836,647.333 627.169,647.5 647.5,648C 660.884,651.434 664.717,659.601 659,672.5C 647.833,683.667 636.667,694.833 625.5,706C 633.5,706.333 641.5,706.667 649.5,707C 659.666,710.158 663.5,716.991 661,727.5C 658.993,732.838 655.159,736.004 649.5,737C 627.833,737.667 606.167,737.667 584.5,737C 573.191,732.539 570.024,724.706 575,713.5C 585.803,701.696 596.97,690.196 608.5,679C 600.167,678.667 591.833,678.333 583.5,678C 574.468,674.603 570.968,668.103 573,658.5C 575.651,652.33 580.151,648.663 586.5,647.5 Z"/></g>
<g><path style="opacity:0.962" fill="#000000" d="M 820.5,706.5 C 827.964,705.981 833.464,708.981 837,715.5C 836.371,726.948 841.538,733.948 852.5,736.5C 859.495,735.769 863.995,732.102 866,725.5C 866.894,710.923 874.394,705.09 888.5,708C 894.453,711.158 897.453,716.158 897.5,723C 895.708,742.254 886.042,755.921 868.5,764C 841.226,771.111 821.726,761.944 810,736.5C 807.575,729.556 807.242,722.556 809,715.5C 811.593,710.721 815.427,707.721 820.5,706.5 Z"/></g>
</svg>
